<mxfile host="app.diagrams.net" modified="2024-06-20T05:07:00.075Z" agent="Mozilla/5.0 (Windows NT 10.0; Win64; x64) AppleWebKit/537.36 (KHTML, like Gecko) Chrome/123.0.0.0 Safari/537.36" version="24.5.4" etag="mErsLT9jqAfmQNVX8b_m" type="github">
  <diagram name="Страница — 1" id="dT4z-n9Dm4nn1qvsIWwD">
    <mxGraphModel>
      <root>
        <mxCell id="0" />
        <mxCell id="1" parent="0" />
      </root>
    </mxGraphModel>
  </diagram>
</mxfile>
